Coordinates
version=1
nRows=24
nColumns=24
inDegrees=yes

Units are S.I. units (second, meters, Newtons, ...)
Angles are in degrees.

endheader
time	pelvis_tilt	pelvis_list	pelvis_rotation	pelvis_tx	pelvis_ty	pelvis_tz	hip_flexion_r	hip_adduction_r	hip_rotation_r	knee_angle_r	ankle_angle_r	subtalar_angle_r	mtp_angle_r	hip_flexion_l	hip_adduction_l	hip_rotation_l	knee_angle_l	ankle_angle_l	subtalar_angle_l	mtp_angle_l	lumbar_extension	lumbar_bending	lumbar_rotation
      2.10500000	     23.94116709	     -2.16803508	      0.26171523	     -0.69773102	      1.02136982	      0.01080917	    -37.84492098	      2.46904148	     -8.41173931	     -5.38228304	     15.32811244	     -2.66710340	     12.15754186	     -7.20252251	     -3.33524620	     -9.65326994	     -0.78221690	      0.69069851	      2.14742360	     30.69458013	    -39.79366788	      1.45526092	      3.30029629
      2.11000000	     24.03029778	     -2.13726663	      0.13552992	     -0.69237147	      1.02090244	      0.01040037	    -38.05649351	      2.28609299	     -8.44061399	     -5.78100222	     15.48187201	     -2.42889317	     12.02196696	     -7.25905212	     -3.21144977	     -9.67561898	     -1.16630633	      0.35931503	      1.76400316	     30.70881321	    -39.86890607	      1.31004056	      3.29150764
      2.11500000	     24.09443550	     -2.08756574	      0.01050303	     -0.68699296	      1.02044058	      0.01003538	    -38.21563309	      2.09049200	     -8.45471155	     -6.22626427	     15.63675277	     -2.32024879	     12.00035220	     -7.26031086	     -3.08461882	     -9.68718848	     -1.65284253	      0.00119895	      1.44548722	     30.68974090	    -39.91362418	      1.13874028	      3.27634908
      2.12000000	     24.20697889	     -2.04473121	     -0.07587454	     -0.68160873	      1.02006229	      0.00958293	    -38.41668687	      1.91300016	     -8.53400667	     -6.68813462	     15.72395388	     -2.09408327	     12.03822127	     -7.29851414	     -2.97104020	     -9.59620059	     -2.19655152	     -0.42641234	      0.91151556	     30.66650837	    -40.00899199	      0.99602312	      3.23300490
      2.12500000	     24.25494611	     -1.99152168	     -0.20977192	     -0.67617953	      1.01967374	      0.00923728	    -38.51182701	      1.70009023	     -8.51058707	     -7.21938982	     15.82502322	     -2.01015877	     12.11121955	     -7.25478407	     -2.85837998	     -9.59449793	     -2.80804086	     -0.89280002	      0.53338611	     30.61312524	    -40.03032525	      0.80758612	      3.20765352
      2.13000000	     24.34525575	     -1.94222424	     -0.26021669	     -0.67077622	      1.01933880	      0.00871968	    -38.64333260	      1.52805377	     -8.59586362	     -7.76242050	     15.85085008	     -1.78969885	     12.36187466	     -7.23142619	     -2.75463199	     -9.36546746	     -3.46871023	     -1.38464064	     -0.20327187	     30.53742137	    -40.09815606	      0.67663081	      3.11983888
      2.13500000	     24.39628127	     -1.89346639	     -0.34967336	     -0.66535856	      1.01902399	      0.00826462	    -38.68812419	      1.32970013	     -8.59963623	     -8.38549742	     15.86627939	     -1.65130752	     12.69660700	     -7.16146149	     -2.65776946	     -9.20584370	     -4.16466267	     -1.87950062	     -0.83619183	     30.44996480	    -40.12466394	      0.51927266	      3.04108475
      2.14000000	     24.45591640	     -1.83351695	     -0.39975913	     -0.65993534	      1.01875372	      0.00775193	    -38.72468007	      1.14183353	     -8.65018716	     -9.04030876	     15.83396710	     -1.53355849	     13.19494933	     -7.07957171	     -2.55926268	     -8.97278321	     -4.90767513	     -2.37204437	     -1.52070155	     30.32779883	    -40.15739701	      0.37137753	      2.95298714
      2.14500000	     24.49242126	     -1.76130580	     -0.44636584	     -0.65445744	      1.01851793	      0.00725560	    -38.70703419	      0.94256050	     -8.72166024	     -9.72777270	     15.47168902	     -1.60139973	     16.48899346	     -6.96615923	     -2.46084686	     -8.78829411	     -5.68368094	     -2.78266766	     -2.01123443	     29.90309894	    -40.15953071	      0.21011924	      2.84444475
      2.15000000	     24.55091411	     -1.71462558	     -0.49452103	     -0.64905346	      1.01835285	      0.00674328	    -38.67507545	      0.76187509	     -8.68577029	    -10.49361315	     15.39056613	     -1.57539475	     16.66048281	     -6.86853937	     -2.38634171	     -8.54580061	     -6.47938791	     -3.18716180	     -2.69150482	     29.74615547	    -40.19336784	      0.06967674	      2.75943390
      2.15500000	     24.58751385	     -1.62461726	     -0.50844520	     -0.64356495	      1.01820585	      0.00614675	    -38.58898459	      0.54695768	     -8.81090013	    -11.31447920	     15.09808094	     -1.50138687	     18.82477354	     -6.74033962	     -2.27159557	     -8.27970240	     -7.30645415	     -3.41939942	     -3.22400959	     28.84388283	    -40.19339500	     -0.08721923	      2.61928753
      2.16000000	     24.59952063	     -1.58458534	     -0.50542349	     -0.63817313	      1.01809331	      0.00553231	    -38.42867745	      0.39153829	     -8.80133661	    -12.21279204	     14.89628011	     -1.53246164	     19.06505536	     -6.56866095	     -2.21229530	     -7.95187008	     -8.15949871	     -3.65903775	     -3.88588809	     28.62298119	    -40.17844141	     -0.19002790	      2.51774002
      2.16500000	     24.63763539	     -1.49337556	     -0.51334463	     -0.63268646	      1.01806388	      0.00489807	    -38.27159285	      0.16500163	     -8.90168823	    -13.14809363	     14.46583171	     -1.51359163	     21.70141081	     -6.43950930	     -2.09656040	     -7.69796039	     -9.02095185	     -3.69464073	     -4.32740194	     27.08626537	    -40.17896180	     -0.34448015	      2.37697723
      2.17000000	     24.62989667	     -1.45960057	     -0.52447477	     -0.62731239	      1.01804020	      0.00427290	    -37.99504731	     -0.00964407	     -8.86589265	    -14.20451734	     14.23372864	     -1.52625847	     21.88851267	     -6.24385251	     -2.04289941	     -7.43151964	     -9.90907612	     -3.76360874	     -4.87796944	     26.88623379	    -40.14440086	     -0.44907781	      2.30169802
      2.17500000	     24.66306906	     -1.35602825	     -0.49341774	     -0.62182957	      1.01810640	      0.00352634	    -37.75561205	     -0.24358831	     -9.01767458	    -15.26094270	     13.60443559	     -1.57357953	     25.05511800	     -6.11263166	     -1.90805682	     -7.11349760	    -10.78841472	     -3.52523080	     -5.22625513	     24.61666388	    -40.13888539	     -0.58741241	      2.13748086
      2.18000000	     24.62598727	     -1.33678026	     -0.47018460	     -0.61648116	      1.01812845	      0.00281039	    -37.35425606	     -0.40538559	     -9.01966315	    -16.46834244	     13.25762313	     -1.56565318	     25.26753845	     -5.88221930	     -1.86907969	     -6.84514952	    -11.70210466	     -3.37979607	     -5.63254703	     24.38964952	    -40.07364467	     -0.65347518	      2.06336820
      2.18500000	     24.66699285	     -1.23857046	     -0.44468330	     -0.61101305	      1.01830365	      0.00203976	    -37.03617807	     -0.65505086	     -9.14569329	    -17.65258875	     12.49389011	     -1.69300636	     28.81652903	     -5.78846689	     -1.73049042	     -6.56552940	    -12.56012997	     -2.89866331	     -5.84073804	     21.56151737	    -40.07551076	     -0.78718603	      1.91492568
      2.19000000	     24.62943761	     -1.19475368	     -0.44014671	     -0.60564360	      1.01842000	      0.00128690	    -36.54292757	     -0.87890132	     -9.19537513	    -19.00197518	     11.99692773	     -1.63642829	     29.02642804	     -5.60201583	     -1.65344145	     -6.36621897	    -13.41904658	     -2.62981067	     -6.11359202	     21.33684127	    -40.00351892	     -0.88040899	      1.85382374
      2.19500000	     24.63740730	     -1.09057641	     -0.41763816	     -0.60018961	      1.01864173	      0.00048114	    -36.09425355	     -1.15747727	     -9.33418371	    -20.31957983	     11.06343309	     -1.88330736	     32.93449170	     -5.51515560	     -1.49831980	     -6.10734647	    -14.21974260	     -1.97569564	     -6.19394941	     18.19260788	    -39.96878084	     -1.01481006	      1.70853685
      2.20000000	     24.62094183	     -1.03463326	     -0.41636136	     -0.59480513	      1.01886946	     -0.00029476	    -35.55447255	     -1.41427993	     -9.41341322	    -21.73394755	     10.22975056	     -2.00563546	     34.97209892	     -5.40678789	     -1.39951789	     -5.96715334	    -15.01475112	     -1.36876644	     -6.25402139	     15.92577776	    -39.91404482	     -1.11580867	      1.62838059
      2.20500000	     24.58988531	     -0.98353385	     -0.44226277	     -0.58945563	      1.01911467	     -0.00107883	    -34.93846599	     -1.70092607	     -9.47416795	    -23.24713128	      9.51708914	     -1.90688826	     35.20202779	     -5.32908082	     -1.29690284	     -5.85571299	    -15.71616684	     -0.97812643	     -6.38194047	     15.77354725	    -39.84473886	     -1.22148959	      1.59862314
      2.21000000	     24.61311844	     -0.88024311	     -0.40741058	     -0.58405335	      1.01942870	     -0.00192718	    -34.39675214	     -2.00294825	     -9.65538763	    -24.68114749	      8.33190750	     -2.31206900	     39.30565739	     -5.34562078	     -1.13664098	     -5.67407248	    -16.36808203	     -0.25728977	     -6.37295578	     13.31648842	    -39.82626312	     -1.34067343	      1.44862910
      2.21500000	     24.58725906	     -0.82765001	     -0.48572603	     -0.57870598	      1.01974676	     -0.00265403	    -33.71370335	     -2.33520237	     -9.67513976	    -26.23826734	      7.29878729	     -2.48237535	     41.54206565	     -5.36251696	     -1.02193711	     -5.66620844	    -16.93927593	      0.39792925	     -6.33578361	     11.31322871	    -39.75398858	     -1.47289662	      1.45622544
      2.22000000	     24.55660388	     -0.73389081	     -0.48321489	     -0.57336500	      1.02004575	     -0.00346718	    -33.02327558	     -2.66500019	     -9.81913860	    -27.78460484	      6.23170516	     -2.77585698	     43.28468036	     -5.39102084	     -0.87016566	     -5.57285672	    -17.46200371	      1.01154274	     -6.29284594	     10.16371414	    -39.67911265	     -1.59480107	      1.34367342
